# xmcd
# Track frame offsets:
# 150
# 16086
# 31286
# 51945
# 69628
# 87975
# 105316
# 122226
# 138221
# 150485
# 164812
# 177097
# 194401
# 216631
# 232379
# 248051
# 264223
# 282620
# 308923
# 322686
#
# Disc length: 4502 seconds
# Revision: 0
# Processed by: cddbd v1.5.2PL0 Copyright (c) Steve Scherf et al.
# Submitted via: VisiTrax 2.11.3.279 - For more info visit www.synapsa.com
#
DISCID=1f119414
DTITLE=Various Artist - Just Country [CD2]
DYEAR=2018
DGENRE=Country
TTITLE0=Randy Travis - Forever And Ever, Amen
TTITLE1=Olivia Newton-John - Please Mr Please
TTITLE2=K D Lang - Constant Craving
TTITLE3=Linda Ronstadt - Blue Bayou
TTITLE4=Chris Janson - Holdin' Her
TTITLE5=Nitty Gritty Dirt Band - Workin' Man (Nowhere To Go)
TTITLE6=Zac Brown Band - My Old Man
TTITLE7=Neal McCoy - The Shake
TTITLE8=Aubrie Sellers - Sit Here And Cry
TTITLE9=Guy Clark - Rita Ballou
TTITLE10=John Anderson - Wild And Blue
TTITLE11=Chad Brock - Evangeline
TTITLE12=Vern Gosdin - The First Time Ever I Saw Your Face
TTITLE13=Maria Muldaur - My Tennessee Mountain Home
TTITLE14=Carlene Carter - Do it In A Heartbeat
TTITLE15=Michael Martin Murphey - Cowboy Logic
TTITLE16=Little Texas - God Blessed Texas
TTITLE17=Sturgill Simpson - Brace For Impact (Live A Little)
TTITLE18=Steve Earle - Feel Alright
TTITLE19=Byrds, The - Cowgirl In The Sand
EXTD=UPC: 0190295837587   \nLabel: Rhino - 0190295837587   \nPub: 2018 Rhin
EXTD=o UK
EXTT0=
EXTT1=
EXTT2=
EXTT3=
EXTT4=
EXTT5=
EXTT6=
EXTT7=
EXTT8=
EXTT9=
EXTT10=
EXTT11=
EXTT12=
EXTT13=
EXTT14=
EXTT15=
EXTT16=
EXTT17=
EXTT18=
EXTT19=
PLAYORDER=
